PathFileType	4	(X/Y/Z)	OpenSim_Sub08_CSStiffKnee_Accel.trc
DataRate	CameraRate	NumFrames	NumMarkers	Units	OrigDataRate	OrigDataStartFrame	OrigNumFrames
100	100	23	8	m	100	3962	5282
Frame#	Time	torso_imu_offset_imu	pelvis_imu_offset_imu	tibia_r_imu_offset_imu	femur_r_imu_offset_imu	tibia_l_imu_offset_imu	femur_l_imu_offset_imu	toes_r_imu_offset_imu	toes_l_imu_offset_imu
				X1	Y1	Z1	X2	Y2	Z2	X3	Y3	Z3	X4	Y4	Z4	X5	Y5	Z5	X6	Y6	Z6	X7	Y7	Z7	X8		Y8	Z8	

3962	39.61000000	10.10691093	0.47622776	5.86226425	10.32231747	-0.02945277	2.77095778	15.08312167	-5.18810688	7.62534770	12.02728823	-4.81255241	3.13328567	12.29603354	3.07819824	0.47671110	8.54535135	6.00224003	-0.76990048	1.10129025	-0.36884437	12.81916747	5.25740896	1.58403395	10.97570371
3963	39.62000000	10.93180621	0.35181939	6.17262466	11.50010038	0.83038414	3.81219288	16.05195532	-8.41925396	8.77503602	15.28902243	-4.66133522	2.56234254	13.25010800	4.13299588	0.94107122	8.65271692	5.62827816	-0.72882114	8.36031636	7.21145561	15.55525638	5.53111208	2.03906555	11.11019365
3964	39.63000000	11.71517235	0.23601241	6.43267535	12.68585152	1.78140370	5.23036771	16.88516243	-8.35502266	7.63517610	17.81101505	-3.58939959	2.22188278	14.34646607	4.24389598	1.17680564	8.93588197	5.62144973	-0.55355620	11.42129281	2.26300357	14.72364374	4.86348372	2.16272949	11.69707558
3965	39.64000000	12.54818753	0.03685645	6.58683882	13.58394166	2.71366156	6.44810503	16.01171695	-4.37643126	5.58439081	17.58806812	-2.26910630	2.47166222	15.15149973	3.72965356	1.81812609	9.29233147	5.59376519	-0.41155992	14.17840615	-0.82179900	13.38588326	4.85034168	1.97043687	12.02716417
3966	39.65000000	13.02075978	-0.13627658	6.61332511	13.77411470	3.03682867	6.84469241	12.81226963	0.79595944	2.51065140	14.94333760	-1.86545822	2.76737285	15.71812127	2.36299151	2.38083914	9.23466429	5.35035401	-0.32250086	11.34541885	-1.99296057	10.67050745	5.66964407	0.86908578	11.67767863
3967	39.66000000	12.35071971	-0.40534350	6.55427237	12.30974791	1.92504326	6.55895957	9.19070216	5.63832036	-0.00136929	11.81906908	-2.05052896	2.70344162	16.56316844	2.35909564	1.10512474	8.94819561	4.54086766	-0.10072127	5.85046619	0.85142468	9.48654079	7.39067378	-0.33299848	11.18910243
3968	39.67000000	10.98069412	-0.92771916	6.47965541	9.90055890	-0.03566682	6.09673318	7.07067834	8.63067999	-1.63947823	9.24317418	-1.58121330	2.86909830	17.48970221	5.79847742	0.43765191	8.84480252	2.89346473	0.67926880	4.23948251	0.57638138	10.40630062	10.09799081	1.09841376	12.70651828
3969	39.68000000	9.70780732	-1.44551674	6.21412723	8.01264885	-1.97948698	5.61287259	6.25284071	10.40437092	-2.93915990	7.49614644	0.03668443	3.53237081	16.75170246	7.06975969	-1.53812039	9.13349556	1.31021353	1.56112883	11.39736626	-10.17695406	6.90177971	12.40651261	2.62503644	15.37284685
3970	39.69000000	8.68204759	-1.54110399	5.83547340	6.96960732	-3.52130712	5.29541858	6.06013244	9.23635545	-4.84245816	6.22447405	1.80225484	2.94895808	15.01232571	4.07807456	-3.48291796	10.10114050	-0.40833486	1.66310676	7.23213058	-10.68698890	6.07305978	15.39197487	0.48900635	14.00828633
3971	39.70000000	8.22650946	-1.30316467	5.56154942	6.22385288	-4.44383303	5.29619870	8.38922941	5.33084739	-5.56970997	5.57118099	2.95876410	0.64612950	14.55930246	-0.15840994	-1.25747024	11.02824395	-1.73736011	1.32601388	5.06315889	-2.31913358	9.25751567	18.72037003	3.60843890	13.96505007
3972	39.71000000	8.35716947	-1.35298259	5.37388781	5.92917452	-4.30637375	5.35632550	11.94532554	0.64534284	-4.58543520	6.60769635	3.31362678	-1.30116657	13.77529695	-3.77770281	0.04723295	12.32195195	-2.07546421	0.48335549	9.10663322	-2.19641790	8.89641078	19.86615164	6.56286193	15.99417051
3973	39.72000000	8.68511293	-1.58294071	5.38019147	6.58457591	-3.02428083	5.41941742	12.66265805	-2.81158201	-3.17547372	9.71066910	2.07511927	-2.09925786	10.96997163	-6.18546020	-0.21473204	13.13579725	-1.24382804	-0.60960445	6.28863908	-0.62040783	9.93965471	20.05618628	3.82367324	15.29258551
3974	39.73000000	9.11844670	-1.63014219	5.40133417	7.67106108	-1.04057967	5.69191693	11.30340238	-3.21521254	-0.63308953	12.53625665	-1.19900663	-2.59852537	8.17823116	-7.60065404	0.06624073	13.37362893	0.15162798	-1.09503195	6.75869820	-1.78102928	9.26293852	13.73442973	6.39092475	16.02485720
3975	39.74000000	9.39316289	-1.51538417	5.42252321	8.97609403	1.20955977	6.04724885	10.36362317	-3.16656943	0.91302059	12.33150944	-4.78756965	-2.73788779	6.76900424	-8.01514341	-0.04218362	14.43682554	0.68560061	-1.08743924	5.78179686	-1.82998655	8.98921246	4.22996004	10.82102665	12.75597006
3976	39.75000000	9.58803849	-1.29143000	5.53012474	10.17664718	3.19664999	6.15769256	10.53429118	-2.49152759	0.49833130	10.14805070	-5.72811166	-1.99394422	6.33790890	-9.32589644	-1.73376889	14.25647479	0.78472371	-0.66727832	5.70872160	-1.19975152	9.09015814	18.48654686	-8.30996310	18.38888829
3977	39.76000000	9.77393276	-1.04257969	5.59642445	10.86346463	4.43572616	5.85933756	10.51019797	-0.96882895	-0.73019430	8.74960012	-3.78394409	-0.92043019	5.90939042	-12.26810894	-3.10818434	13.83058331	0.94803518	0.29041878	5.68847998	-1.92022511	8.62492186	23.87149954	-3.84555713	27.45303529
3978	39.77000000	9.68581084	-0.88412363	5.64772247	10.72132956	4.37407186	5.26735397	9.74393293	0.36311077	-2.01508872	8.51620682	-0.93007474	-0.00082375	4.31020804	-14.78182229	-2.70412875	12.75958699	0.97536433	1.47846296	5.65912649	-2.22715852	8.46460716	8.03617448	24.12663131	25.25609041
3979	39.78000000	9.56909126	-0.87359305	5.66040330	9.87595715	3.05554214	4.78642668	9.31438332	1.55907025	-2.68875069	8.61936961	1.34029941	0.56347195	2.83572865	-13.78848364	-1.66599743	12.01633386	1.31196261	2.40039137	5.55221032	-3.10332455	8.04959287	1.33826678	18.53651903	19.07623479
3980	39.79000000	9.75377525	-0.87724243	5.61986397	9.61725048	1.35372359	4.59028844	9.54353980	2.35028925	-2.56893539	8.81887649	2.66241397	0.73343233	2.78196749	-10.65168813	-0.66478767	11.74809919	2.30297248	2.79896156	5.52156761	-3.28604552	8.03999563	-1.91580549	12.29736166	14.91545116
3981	39.80000000	10.19210574	-0.84461537	5.55305643	10.10350767	-0.23432637	4.52696655	9.88495573	2.57415627	-1.95516476	9.19333006	3.21919298	0.91176436	2.65649677	-8.30929934	0.72606962	10.78851952	3.48074998	2.84124215	5.59300886	-2.30596273	8.19216812	-3.88124784	7.65112769	13.13458982
3982	39.81000000	10.26820881	-0.72514246	5.50943366	10.26918522	-1.30499225	4.45307799	10.03758977	2.29797018	-0.94874269	9.73952839	3.05654412	1.11637611	1.85557305	-6.47227439	2.93542818	10.51122575	4.34609047	2.68476110	5.66599171	-1.85737370	8.20688300	-4.86551617	-1.98949106	9.74591170
3983	39.82000000	9.90335917	-0.61748755	5.50360566	9.95725219	-1.59487388	4.27584113	10.02239033	1.61965474	-0.23489949	10.13690650	2.23339740	1.01822658	1.31800290	-5.08678697	4.23873402	10.23573535	4.78356500	2.40309794	5.33622454	-1.79172874	8.38464375	-4.12754149	-3.04480984	10.15015790
3984	39.83000000	9.47872653	-0.54915447	5.59724469	9.46314278	-1.22540362	4.02125062	10.08583880	1.06765434	-0.02969049	10.07435973	1.14497515	0.69267344	1.44044799	-4.56425185	4.09535835	10.46194009	4.53799264	2.25112938	5.00432012	-1.72252073	8.57482537	-1.86870026	-1.64412558	11.49836284
